<?xml version="1.0" standalone="no"?>
<!DOCTYPE svg PUBLIC "-//W3C//DTD SVG 20010904//EN"
 "http://www.w3.org/TR/2001/REC-SVG-20010904/DTD/svg10.dtd">
<svg version="1.0" xmlns="http://www.w3.org/2000/svg"
 width="2048.000000pt" height="2048.000000pt" viewBox="0 0 2048.000000 2048.000000"
 preserveAspectRatio="xMidYMid meet">
<metadata>
Created by potrace 1.14, written by Peter Selinger 2001-2017
</metadata>
<g transform="translate(0.000000,2048.000000) scale(0.100000,-0.100000)"
fill="#000000" stroke="none">
<path d="M7046 17003 c-2 -2 -16 -6 -31 -9 -44 -8 -284 -89 -411 -139 -191
-76 -430 -196 -561 -281 -28 -19 -56 -34 -61 -34 -6 0 -12 -3 -14 -7 -3 -8
-95 -73 -103 -73 -3 0 -13 -6 -22 -14 -10 -8 -72 -55 -138 -104 -149 -112
-192 -150 -325 -282 -137 -137 -178 -185 -261 -300 -133 -187 -230 -430 -230
-575 1 -87 3 -100 24 -149 9 -21 17 -41 17 -45 0 -3 13 -15 28 -26 36 -26 122
-26 177 0 119 57 285 167 365 241 14 13 35 32 46 41 107 89 614 587 719 707
33 37 74 82 90 99 32 34 219 256 270 322 17 21 38 48 47 59 10 12 52 64 95
116 42 52 82 100 88 106 5 6 26 30 45 54 19 24 53 64 76 89 77 86 164 193 164
203 0 8 -86 9 -94 1z"/>
<path d="M13310 16997 c0 -8 3 -17 8 -19 4 -1 55 -59 113 -128 59 -69 116
-135 127 -148 11 -12 73 -88 138 -169 129 -159 315 -385 324 -393 3 -3 34 -39
70 -80 126 -146 383 -409 586 -599 306 -287 311 -291 437 -378 168 -116 296
-163 357 -131 69 37 107 160 88 287 -53 357 -351 757 -830 1117 -275 205 -477
322 -843 485 -29 12 -152 58 -205 75 -25 8 -54 19 -65 24 -19 9 -144 46 -189
57 -12 2 -42 7 -68 10 -39 5 -48 3 -48 -10z"/>
<path d="M7619 15666 c-2 -2 -54 -6 -115 -10 -61 -4 -121 -8 -135 -10 -27 -5
-92 -13 -159 -22 -128 -16 -519 -127 -740 -209 -138 -52 -260 -103 -277 -117
-7 -6 -13 -8 -13 -4 0 8 -306 -152 -339 -178 -7 -5 -21 -15 -31 -21 -130 -74
-327 -198 -392 -247 -92 -70 -263 -248 -326 -341 -90 -130 -169 -305 -187
-412 -29 -171 25 -255 168 -259 109 -3 214 27 414 120 40 19 75 34 79 34 14 0
358 172 447 223 54 31 102 57 107 57 5 0 10 3 12 8 2 4 44 34 93 67 95 62 344
248 382 284 12 12 24 21 27 21 3 0 16 10 29 23 12 12 49 45 81 72 33 28 76 66
96 85 282 264 303 283 570 544 102 100 207 201 233 224 44 41 57 61 40 63 -5
0 -20 3 -34 5 -14 2 -27 2 -30 0z"/>
<path d="M12778 15663 c-27 -7 -22 -17 29 -65 26 -23 130 -124 232 -224 223
-217 243 -237 401 -384 67 -63 139 -131 159 -150 34 -33 140 -126 189 -166 13
-10 33 -27 45 -37 12 -10 35 -28 50 -40 16 -12 66 -51 112 -87 79 -61 177
-133 214 -155 9 -5 32 -22 52 -37 20 -15 39 -25 42 -21 4 3 9 -2 13 -11 3 -9
10 -16 16 -16 5 0 50 -24 101 -54 116 -68 273 -147 442 -221 17 -7 64 -29 105
-47 241 -110 392 -137 499 -91 58 25 75 73 68 185 -5 97 -30 176 -92 299 -118
237 -333 465 -575 609 -41 24 -77 47 -80 50 -3 3 -16 11 -30 18 -14 7 -45 25
-70 41 -129 84 -354 206 -465 253 -230 98 -564 215 -694 243 -9 2 -52 13 -96
25 -87 23 -200 45 -292 56 -32 3 -65 8 -73 9 -8 2 -62 6 -120 10 -58 3 -118 8
-135 9 -16 2 -38 1 -47 -1z"/>
<path d="M4621 15394 c-31 -22 -109 -94 -150 -137 -76 -82 -102 -111 -129
-145 -15 -19 -32 -40 -37 -46 -9 -10 -54 -68 -157 -205 -15 -20 -33 -46 -39
-58 -7 -13 -16 -23 -21 -23 -4 0 -8 -6 -8 -14 0 -8 -3 -16 -8 -18 -7 -3 -106
-149 -164 -243 -64 -102 -238 -447 -238 -471 0 -3 -8 -24 -19 -47 -22 -50 -33
-78 -37 -92 -1 -5 -14 -46 -29 -90 -15 -44 -28 -84 -29 -90 -2 -5 -6 -17 -9
-25 -14 -33 -65 -261 -81 -361 -20 -120 -27 -353 -13 -455 4 -28 17 -82 29
-120 12 -38 22 -71 23 -74 6 -23 58 -120 74 -140 66 -79 136 -134 198 -155 62
-21 117 12 199 120 71 93 260 443 279 515 0 3 11 28 24 55 12 28 29 68 37 91
7 23 21 59 31 80 9 21 18 44 19 49 1 6 19 60 39 120 50 153 119 428 140 566
13 82 28 245 40 419 3 52 8 111 10 130 4 36 12 126 20 245 12 173 17 228 21
248 2 12 7 51 9 87 3 36 7 76 10 90 3 14 7 64 10 111 6 95 -3 111 -44 83z"/>
<path d="M15791 15401 c-9 -6 -11 -31 -6 -101 4 -51 8 -102 11 -114 2 -11 6
-46 10 -76 3 -30 7 -68 9 -85 5 -41 15 -166 20 -245 10 -153 15 -210 30 -380
3 -30 8 -93 10 -140 7 -99 12 -151 19 -200 3 -19 8 -53 11 -75 4 -22 8 -49 10
-60 2 -11 6 -33 9 -50 3 -16 10 -50 17 -75 6 -25 12 -53 14 -64 87 -421 375
-1076 570 -1294 56 -63 127 -80 183 -44 65 41 162 122 147 122 -3 0 3 10 14
21 22 24 62 103 86 169 61 169 68 421 19 673 -9 42 -17 90 -20 105 -12 70
-102 371 -133 447 -51 123 -137 313 -147 325 -7 8 -13 20 -14 25 -2 15 -89
174 -122 222 -15 23 -28 44 -28 47 0 5 -58 92 -158 236 -51 73 -152 209 -191
256 -14 17 -42 51 -61 75 -48 59 -127 145 -174 188 -21 20 -50 46 -63 58 -33
32 -57 43 -72 34z"/>
<path d="M6115 13989 c-77 -14 -385 -141 -445 -183 -8 -6 -46 -27 -85 -46 -38
-19 -72 -38 -75 -41 -3 -3 -12 -9 -20 -13 -23 -11 -52 -29 -87 -53 -17 -13
-36 -23 -42 -23 -7 0 -14 -7 -17 -15 -4 -8 -10 -15 -16 -15 -9 0 -232 -166
-277 -207 -14 -12 -48 -41 -77 -65 -99 -81 -351 -343 -456 -473 -109 -136
-338 -474 -338 -500 0 -2 -13 -32 -29 -67 -17 -35 -46 -115 -67 -178 -57 -181
-56 -346 7 -580 26 -97 99 -247 139 -285 28 -27 39 -30 99 -32 77 -2 173 17
229 46 38 19 116 91 187 173 130 149 264 342 352 506 26 48 52 90 57 94 6 4 8
8 4 8 -4 0 15 44 42 98 62 125 104 214 180 387 34 77 72 161 85 187 13 25 21
48 19 51 -2 2 2 10 11 17 8 7 15 17 15 22 0 11 176 367 226 458 95 170 228
383 312 498 87 119 131 191 132 218 0 17 -20 21 -65 13z"/>
<path d="M14288 13992 c-22 -4 -22 -13 -4 -55 13 -32 61 -107 74 -117 17 -12
189 -269 239 -357 21 -35 43 -72 48 -81 79 -133 260 -494 381 -758 46 -103 84
-188 84 -189 0 -7 75 -166 154 -324 125 -251 187 -352 349 -566 99 -131 287
-321 287 -290 0 4 6 3 13 -3 24 -20 130 -40 203 -39 71 2 76 3 107 37 70 76
140 246 163 398 3 20 9 55 14 77 16 73 6 253 -19 335 -40 132 -90 257 -133
332 -96 170 -266 409 -402 568 -114 133 -422 421 -556 520 -18 14 -39 31 -46
38 -7 6 -15 12 -19 12 -4 0 -13 6 -20 13 -26 22 -39 32 -125 88 -47 31 -112
71 -145 90 -33 18 -72 41 -87 51 -16 11 -28 16 -28 12 0 -3 -6 -2 -12 4 -13
10 -146 82 -151 81 -1 0 -32 13 -69 30 -137 61 -265 101 -300 93z"/>
<path d="M10104 13781 c-2 -3 -71 -6 -152 -7 -232 -4 -442 -13 -452 -19 -6 -4
-10 -1 -10 5 0 6 -5 8 -12 4 -6 -4 -26 -9 -42 -10 -165 -11 -204 -15 -226 -19
-14 -2 -51 -7 -84 -10 -32 -3 -61 -7 -65 -10 -4 -2 -27 -5 -50 -6 -23 -2 -45
-7 -47 -11 -3 -5 -9 -6 -13 -4 -4 3 -27 0 -52 -5 -24 -6 -55 -13 -69 -15 -14
-3 -81 -18 -150 -34 -69 -17 -172 -41 -230 -54 -58 -13 -130 -32 -160 -41 -30
-9 -59 -17 -65 -18 -5 -2 -43 -14 -84 -27 -65 -22 -83 -33 -145 -96 -39 -39
-84 -91 -101 -115 -16 -24 -34 -48 -40 -54 -15 -15 -215 -329 -215 -340 0 -1
-24 -45 -53 -96 -87 -156 -189 -366 -266 -554 -23 -55 -46 -108 -51 -117 -6
-10 -10 -25 -10 -33 0 -8 -5 -15 -12 -15 -6 0 -9 -3 -6 -6 3 -3 -5 -35 -19
-72 -28 -73 -133 -388 -138 -412 -2 -8 -14 -55 -28 -105 -28 -99 -73 -297 -82
-360 -4 -22 -8 -47 -10 -55 -2 -8 -7 -37 -10 -65 -4 -27 -8 -61 -11 -75 -17
-106 -24 -450 -10 -520 4 -19 13 -44 20 -55 7 -11 17 -36 20 -55 7 -32 57
-201 91 -310 26 -79 113 -361 144 -465 16 -55 41 -138 56 -185 14 -47 28 -92
30 -100 2 -8 18 -60 35 -115 30 -96 47 -150 89 -287 11 -35 33 -106 49 -158
17 -52 53 -167 80 -255 28 -88 68 -214 90 -280 22 -66 59 -185 83 -264 54
-178 65 -191 151 -191 79 1 944 -7 1703 -15 521 -6 2035 -15 2804 -17 294 -1
294 -1 313 22 10 12 16 25 13 30 -2 4 18 74 46 156 27 82 120 374 205 649 86
275 184 590 219 700 141 443 287 916 342 1105 34 121 36 131 36 290 0 91 -3
190 -7 220 -4 30 -9 75 -12 100 -5 52 -9 74 -29 185 -30 165 -54 268 -109 455
-54 186 -156 478 -211 605 -89 207 -118 271 -178 395 -39 80 -101 198 -138
262 -37 64 -64 120 -61 123 3 3 1 5 -4 5 -6 0 -21 19 -34 43 -26 47 -131 202
-192 285 -54 73 -153 170 -186 183 -36 15 -281 90 -307 94 -11 2 -83 18 -159
34 -77 17 -155 33 -175 35 -20 3 -47 8 -61 11 -14 3 -47 7 -75 10 -27 3 -58 8
-69 12 -10 3 -33 6 -50 8 -17 2 -53 6 -81 9 -208 25 -338 39 -490 50 -44 4
-109 9 -145 12 -74 5 -213 13 -347 18 -50 2 -96 7 -102 11 -12 7 -220 13 -227
6z"/>
<path d="M2666 13388 c-13 -21 -49 -129 -51 -153 -1 -5 -5 -21 -10 -35 -5 -14
-9 -32 -10 -40 -1 -8 -5 -35 -9 -60 -13 -87 -16 -116 -23 -190 -9 -104 -9
-530 0 -615 19 -168 40 -317 58 -410 11 -55 22 -111 25 -125 74 -375 287 -875
507 -1195 158 -230 411 -479 527 -519 60 -21 75 -20 122 6 69 39 139 171 159
302 13 82 3 412 -14 491 -2 11 -8 42 -11 68 -4 27 -10 59 -13 70 -2 12 -8 40
-13 62 -54 257 -146 528 -241 710 -12 22 -80 155 -151 295 -142 278 -170 332
-178 340 -3 3 -13 21 -22 40 -19 39 -74 136 -106 190 -12 19 -26 44 -32 55 -5
11 -38 63 -71 115 -71 109 -214 343 -250 410 -13 25 -27 47 -31 48 -5 2 -8 7
-8 12 0 17 -81 130 -99 140 -29 15 -39 13 -55 -12z"/>
<path d="M17728 13400 c-25 -15 -99 -132 -239 -378 -11 -18 -39 -63 -63 -100
-84 -129 -120 -187 -139 -222 -11 -19 -23 -37 -26 -40 -4 -3 -15 -21 -25 -40
-9 -19 -23 -44 -29 -55 -15 -26 -76 -135 -114 -205 -17 -30 -91 -174 -166
-320 -74 -146 -142 -278 -151 -295 -99 -181 -196 -485 -255 -799 -29 -147 -35
-231 -36 -436 0 -187 7 -223 61 -335 28 -58 57 -94 98 -120 38 -25 52 -27 109
-14 65 15 148 78 287 218 154 156 238 265 358 466 48 79 192 365 192 379 0 3
11 29 23 58 27 60 67 158 71 173 2 6 6 17 9 25 53 141 134 467 152 617 4 26 8
55 10 63 2 8 7 39 10 69 4 30 8 63 11 74 18 97 25 501 11 717 -3 58 -7 105 -7
105 -2 0 -4 11 -16 90 -4 28 -9 57 -10 65 -2 8 -5 26 -9 40 -3 14 -8 34 -10
45 -9 39 -45 138 -56 151 -13 16 -27 17 -51 4z"/>
<path d="M5415 11763 c-43 -22 -128 -93 -220 -182 -71 -69 -111 -112 -184
-201 -11 -14 -27 -32 -34 -40 -23 -26 -131 -171 -190 -257 -102 -148 -203
-342 -266 -508 -23 -60 -46 -120 -51 -133 -13 -31 -68 -259 -74 -307 -15 -118
-19 -160 -21 -260 -2 -108 15 -282 35 -360 6 -22 13 -48 15 -58 12 -53 78
-204 94 -217 3 -3 19 -22 34 -43 42 -56 76 -84 137 -113 78 -38 153 -40 217
-9 92 46 203 170 255 285 11 25 33 72 48 106 68 148 137 382 164 554 3 14 8
45 11 70 4 25 9 54 12 65 7 35 11 73 28 233 2 26 7 92 11 147 3 55 7 123 9
150 3 46 10 246 20 540 2 66 7 163 11 215 9 110 10 264 4 300 -5 23 -18 40
-30 39 -3 0 -18 -7 -35 -16z"/>
<path d="M14979 11764 c-14 -17 -17 -181 -6 -324 8 -101 16 -276 23 -505 5
-187 7 -220 19 -400 4 -49 8 -119 11 -155 4 -62 9 -111 20 -175 3 -16 7 -46 9
-65 24 -196 107 -503 180 -665 53 -117 79 -170 87 -173 4 -2 8 -9 8 -15 0 -22
87 -120 154 -175 48 -40 109 -61 168 -58 50 3 144 39 160 61 4 6 8 7 8 2 0
-25 150 170 150 196 0 7 4 17 9 23 10 10 50 124 57 164 3 14 7 32 9 40 19 67
31 193 29 315 -1 110 -12 263 -19 275 -2 3 -6 24 -9 46 -4 23 -11 56 -16 74
-5 18 -9 35 -8 39 4 15 -49 177 -97 301 -57 148 -183 385 -252 476 -12 17 -23
36 -23 42 0 6 -4 12 -8 14 -4 2 -33 38 -64 81 -58 79 -111 147 -138 176 -8 9
-25 30 -38 46 -37 47 -199 211 -245 247 -23 18 -49 41 -59 50 -15 15 -90 58
-101 58 -3 0 -10 -7 -18 -16z"/>
<path d="M2229 10561 c-9 -4 -14 -16 -13 -31 8 -83 15 -138 20 -160 3 -14 7
-35 8 -47 2 -12 8 -28 14 -36 7 -8 9 -16 6 -20 -3 -3 -1 -21 5 -39 5 -18 12
-44 15 -58 3 -14 12 -46 20 -73 8 -26 15 -49 16 -52 0 -3 0 -6 0 -7 0 -2 16
-48 36 -103 19 -55 35 -106 36 -112 1 -7 4 -13 8 -13 4 0 7 -6 7 -12 1 -15 26
-81 33 -88 3 -3 6 -10 7 -16 4 -18 50 -119 109 -239 60 -119 72 -142 92 -163
6 -7 12 -20 12 -28 0 -8 5 -14 12 -14 6 0 9 -3 5 -6 -3 -3 9 -27 27 -53 17
-25 52 -75 76 -111 25 -36 50 -70 55 -77 6 -7 15 -18 20 -25 9 -13 74 -92 120
-147 65 -78 286 -288 349 -330 11 -8 23 -17 26 -20 18 -21 191 -139 200 -137
3 1 16 -9 30 -21 13 -13 30 -23 37 -23 7 0 13 -5 13 -11 0 -5 4 -8 9 -4 5 3
12 1 16 -4 3 -6 43 -29 88 -52 45 -23 88 -46 95 -51 6 -6 12 -7 12 -4 0 4 12
0 28 -8 44 -24 143 -57 153 -51 5 4 9 2 9 -3 0 -17 166 -45 268 -46 34 0 62
-4 62 -9 0 -5 6 -5 13 1 7 6 25 9 40 8 15 -2 30 0 32 4 2 4 16 6 30 5 14 -2
25 1 25 6 0 5 7 9 15 9 17 0 51 34 70 70 25 48 34 159 19 245 -4 22 -7 46 -7
53 0 6 -3 12 -7 12 -5 0 -9 20 -11 63 0 9 -3 17 -7 17 -4 0 -9 12 -10 26 -1
15 -6 32 -10 38 -5 6 -19 38 -32 71 -13 33 -28 63 -33 66 -5 3 -9 9 -8 12 1
18 -26 66 -34 60 -4 -5 -5 0 -2 10 4 9 2 17 -2 17 -5 0 -27 30 -48 66 -21 37
-45 77 -53 89 -38 56 -56 81 -70 96 -8 8 -28 33 -45 55 -16 21 -51 61 -77 88
-27 27 -48 52 -48 55 0 4 -12 18 -27 32 -16 14 -49 47 -74 74 -26 28 -88 88
-139 135 -126 116 -118 109 -185 165 -33 28 -65 55 -71 60 -6 6 -23 19 -39 30
-15 11 -44 34 -65 50 -21 17 -47 37 -60 45 -55 37 -145 106 -148 112 -2 5 -10
8 -17 8 -7 0 -15 4 -17 8 -1 5 -59 47 -128 93 -69 46 -126 87 -128 92 -2 4
-10 7 -18 7 -8 0 -14 5 -14 10 0 6 -5 10 -10 10 -12 0 -92 51 -102 65 -5 7 -8
7 -8 0 0 -7 -3 -7 -8 0 -4 6 -24 19 -44 30 -21 11 -38 23 -38 28 0 4 -4 6 -9
2 -5 -3 -17 2 -25 11 -9 8 -16 13 -16 10 0 -4 -17 4 -37 17 -62 38 -288 143
-331 153 -15 4 -31 9 -37 13 -14 8 -67 9 -86 2z"/>
<path d="M18140 10560 c0 -3 -8 -6 -19 -7 -10 -1 -36 -9 -57 -19 -21 -9 -44
-18 -51 -19 -27 -6 -283 -139 -283 -147 0 -5 -4 -7 -9 -4 -5 3 -20 -4 -35 -15
-14 -11 -26 -18 -26 -15 0 6 -109 -61 -145 -89 -10 -8 -25 -15 -31 -15 -7 0
-14 -4 -16 -9 -3 -7 -71 -53 -93 -62 -5 -2 -20 -14 -34 -26 -13 -13 -30 -23
-37 -23 -8 0 -14 -5 -14 -10 0 -6 -12 -16 -27 -23 -15 -6 -35 -19 -45 -27 -32
-29 -47 -40 -54 -40 -3 0 -20 -11 -38 -25 -17 -14 -35 -29 -41 -33 -5 -4 -22
-16 -36 -27 -15 -11 -37 -27 -49 -35 -13 -8 -49 -36 -81 -62 -32 -27 -61 -48
-64 -48 -3 0 -13 -8 -24 -17 -58 -55 -80 -73 -90 -73 -6 0 -11 -4 -11 -10 0
-5 -16 -20 -35 -33 -19 -13 -32 -27 -28 -30 3 -4 1 -7 -6 -7 -16 0 -351 -334
-351 -350 0 -6 -4 -8 -10 -5 -5 3 -10 2 -10 -3 0 -6 -13 -24 -29 -40 -15 -17
-45 -54 -67 -81 -21 -28 -42 -51 -47 -51 -4 0 -5 -5 -2 -10 3 -6 0 -13 -8 -16
-9 -3 -21 -19 -27 -35 -7 -16 -16 -29 -21 -29 -5 0 -9 -6 -9 -13 0 -7 -9 -23
-20 -35 -11 -12 -20 -24 -20 -28 0 -3 -17 -33 -37 -66 -20 -33 -38 -67 -39
-76 -2 -8 -7 -18 -12 -21 -9 -6 -74 -167 -87 -216 -5 -16 -10 -37 -12 -45 -3
-8 -5 -27 -6 -42 -1 -16 -5 -28 -8 -28 -14 0 -7 -202 8 -237 39 -94 86 -116
247 -116 140 0 186 4 186 15 0 5 8 4 18 -1 11 -6 23 -6 28 -1 5 5 24 12 43 15
18 3 49 12 67 20 19 8 34 12 34 10 0 -2 12 2 27 10 15 8 30 12 35 9 4 -3 8 0
8 5 0 6 3 10 8 9 4 -1 20 4 35 10 16 7 33 12 38 12 5 0 9 5 9 10 0 6 6 10 13
10 6 0 23 6 37 14 14 7 50 26 80 42 30 16 57 31 60 34 3 3 21 14 40 24 19 11
41 26 48 33 7 7 19 13 27 13 7 0 15 7 19 15 3 8 11 15 19 15 7 0 22 8 33 18
10 9 49 40 85 67 116 89 150 118 248 215 108 107 155 160 274 310 7 8 39 54
71 103 33 48 64 87 69 87 6 0 8 3 4 6 -3 4 8 29 26 58 18 28 39 65 47 81 8 17
18 32 21 35 12 10 139 282 140 300 1 3 5 11 11 18 6 6 7 12 2 12 -5 0 -4 4 2
8 5 4 18 30 28 57 10 28 21 59 26 70 13 32 38 100 38 105 0 3 6 18 12 34 6 16
12 36 13 45 1 9 6 21 9 27 4 6 12 33 18 60 7 27 14 58 17 69 2 11 6 29 8 40 2
11 8 33 14 48 6 15 10 31 10 35 -1 4 0 9 1 12 5 15 19 90 26 140 13 103 12
110 -5 112 -45 4 -81 3 -81 -2z"/>
<path d="M5831 9995 c-56 -58 -110 -119 -120 -135 -10 -17 -21 -27 -24 -24 -3
4 -9 -6 -13 -20 -3 -15 -9 -25 -12 -22 -2 3 -19 -16 -35 -42 -17 -26 -34 -49
-37 -52 -13 -11 -100 -150 -100 -160 0 -5 -4 -10 -10 -10 -5 0 -12 -11 -16
-25 -3 -14 -10 -25 -15 -25 -5 0 -9 -7 -9 -15 0 -8 -5 -15 -11 -15 -5 0 -7 -4
-4 -10 3 -5 1 -10 -4 -10 -6 0 -11 -9 -11 -20 0 -11 -3 -20 -7 -20 -5 0 -21
-28 -38 -63 -16 -34 -33 -64 -38 -65 -4 -2 -5 -8 -1 -13 3 -5 0 -9 -5 -9 -6 0
-10 -3 -9 -7 1 -5 -3 -18 -10 -30 -7 -13 -9 -23 -5 -23 4 0 3 -4 -4 -8 -6 -4
-13 -16 -15 -27 -1 -11 -7 -23 -11 -26 -5 -3 -9 -12 -11 -20 -1 -8 -11 -32
-21 -54 -10 -22 -19 -42 -20 -45 -10 -28 -27 -68 -35 -83 -6 -10 -8 -22 -5
-27 4 -6 1 -10 -5 -10 -6 0 -9 -4 -5 -9 3 -5 0 -13 -6 -16 -5 -4 -8 -13 -5
-21 3 -8 2 -14 -2 -14 -4 0 -14 -21 -21 -47 -8 -27 -15 -52 -17 -58 -2 -5 -5
-19 -8 -30 -2 -11 -5 -21 -6 -22 -3 -3 -2 -2 -15 -58 -10 -46 -12 -53 -15 -60
-3 -7 -5 -13 -15 -70 -4 -27 -10 -57 -12 -65 -8 -31 -14 -66 -17 -100 -2 -19
-5 -35 -6 -35 -1 0 -3 -16 -4 -35 -1 -19 -5 -41 -10 -48 -4 -7 -2 -12 6 -12 8
0 9 -3 3 -8 -14 -9 -18 -63 -17 -262 1 -222 11 -299 54 -438 22 -73 76 -193
91 -203 5 -3 7 -8 5 -10 -1 -2 13 -28 32 -58 19 -30 40 -62 46 -72 6 -10 26
-33 45 -51 28 -27 42 -33 86 -35 29 -1 55 2 58 7 3 5 23 17 43 27 20 9 41 23
45 30 4 7 13 13 18 13 18 0 167 161 220 237 80 116 133 241 173 403 31 130 41
177 51 245 2 11 5 36 8 55 23 149 30 246 42 585 12 313 9 495 -11 775 -2 36
-7 106 -10 155 -2 50 -7 110 -9 135 -3 25 -7 115 -10 200 -6 167 -9 190 -29
190 -7 0 -59 -47 -115 -105z"/>
<path d="M14485 10081 c-3 -11 -8 -82 -10 -158 -2 -77 -6 -166 -9 -199 -5 -58
-10 -125 -22 -339 -3 -60 -8 -132 -10 -160 -17 -244 9 -983 40 -1140 2 -11 7
-42 10 -70 8 -61 13 -92 32 -175 50 -221 102 -351 196 -487 62 -90 220 -250
254 -259 13 -3 24 -9 24 -14 0 -14 76 -41 112 -38 22 1 48 11 62 24 13 13 27
20 30 17 3 -4 6 -1 6 5 0 7 20 39 45 73 25 34 45 67 45 75 0 8 4 14 8 14 5 0
18 21 30 48 43 95 61 142 56 142 -2 0 3 11 12 25 9 14 13 25 10 25 -4 0 -2 8
3 18 9 18 19 62 26 122 2 19 7 55 11 80 3 25 7 65 8 90 1 25 5 51 10 58 4 6 4
12 -1 12 -4 0 -8 27 -8 60 0 33 4 60 8 60 5 0 5 6 0 13 -4 6 -8 30 -9 53 0 22
-3 45 -5 50 -3 5 -5 26 -4 47 0 20 -2 37 -5 37 -3 0 -7 19 -8 43 -4 52 -9 102
-12 102 -1 0 -3 14 -5 30 -7 57 -14 100 -15 100 -1 0 -3 7 -5 15 -2 8 -8 35
-15 60 -6 25 -12 54 -14 65 -2 11 -4 20 -5 20 -3 0 -12 36 -13 53 -1 6 -4 12
-7 12 -3 0 -7 12 -8 26 0 15 -7 30 -15 35 -11 7 -10 9 2 9 11 0 11 3 2 12 -7
7 -12 20 -12 30 0 10 -5 18 -11 18 -5 0 -8 4 -5 9 3 5 -2 26 -11 47 -9 22 -18
44 -19 51 -1 7 -9 27 -18 44 -9 18 -16 38 -16 46 0 7 -4 13 -9 13 -6 0 -8 9
-6 19 2 11 -3 22 -11 25 -9 3 -13 10 -9 15 3 5 1 12 -5 16 -6 4 -8 11 -5 16 4
5 1 9 -4 9 -6 0 -11 9 -11 20 0 11 -4 20 -8 20 -4 0 -14 20 -21 45 -7 25 -16
45 -20 45 -3 0 -14 20 -24 45 -11 25 -23 45 -28 45 -5 0 -8 3 -7 8 2 8 -51
114 -61 122 -4 3 -12 16 -19 30 -15 32 -33 60 -50 78 -7 7 -10 17 -8 21 3 4
-4 14 -15 21 -10 8 -19 20 -19 27 0 7 -4 13 -8 13 -5 0 -14 11 -20 25 -12 26
-22 40 -54 76 -10 10 -18 22 -18 25 0 3 -6 11 -12 18 -7 7 -24 28 -38 46 -14
18 -31 39 -37 46 -7 7 -13 18 -13 25 0 7 -2 10 -5 7 -3 -2 -42 33 -88 79 -46
46 -88 83 -94 83 -7 0 -14 -9 -18 -19z"/>
<path d="M6292 8353 c-18 -26 -67 -118 -63 -118 1 0 -10 -27 -24 -60 -29 -64
-42 -101 -73 -210 -34 -117 -51 -178 -56 -210 -3 -16 -8 -41 -11 -55 -11 -47
-16 -74 -36 -205 -36 -238 -28 -820 15 -1032 3 -11 8 -43 12 -70 7 -48 10 -67
18 -100 3 -10 11 -48 20 -84 9 -36 22 -84 30 -107 9 -23 16 -46 17 -50 1 -7 5
-16 39 -102 54 -138 226 -425 272 -453 10 -7 18 -17 18 -24 0 -7 6 -13 14 -13
7 0 20 -7 27 -16 28 -34 85 -62 122 -60 20 1 37 -2 37 -7 0 -4 6 -3 13 3 6 6
33 26 59 44 26 18 46 35 43 37 -2 3 8 13 24 23 51 35 133 174 162 277 19 66
20 72 24 104 2 17 8 55 14 85 9 50 7 338 -3 385 -3 17 -9 55 -21 145 -2 8 -6
31 -10 50 -4 19 -8 44 -10 55 -6 40 -37 182 -51 235 -43 156 -133 441 -154
485 -5 11 -19 45 -30 75 -11 30 -24 64 -29 75 -13 28 -34 80 -66 155 -15 36
-31 73 -36 83 -27 51 -103 255 -159 422 -90 273 -106 298 -148 238z"/>
<path d="M14094 8348 c-10 -18 -48 -125 -86 -238 -37 -113 -72 -214 -77 -225
-5 -11 -37 -87 -71 -170 -35 -82 -71 -168 -81 -190 -123 -270 -261 -728 -309
-1020 -6 -33 -12 -71 -14 -85 -22 -126 -28 -385 -12 -495 19 -133 80 -311 121
-352 8 -8 15 -18 15 -22 0 -11 60 -72 117 -117 26 -22 50 -42 53 -46 3 -4 18
-5 33 -4 15 2 30 -1 33 -6 3 -5 12 -4 20 3 8 6 14 9 14 5 0 -4 12 1 28 11 27
18 36 24 69 53 9 8 29 24 43 35 15 11 28 25 29 30 1 6 12 21 24 36 28 32 67
87 67 93 0 3 12 22 26 43 74 108 208 431 227 548 3 17 12 62 20 100 13 62 22
115 31 195 2 14 7 54 11 90 4 35 8 87 10 115 1 29 4 56 6 61 14 26 0 570 -16
661 -2 10 -7 47 -11 83 -4 36 -9 67 -9 70 -1 3 -5 23 -9 45 -5 22 -14 65 -21
95 -8 30 -16 66 -19 80 -3 14 -12 46 -20 73 -8 26 -15 49 -16 52 -1 8 -6 24
-40 124 -55 166 -125 301 -155 301 -8 0 -22 -15 -31 -32z"/>
<path d="M2596 8204 c-3 -8 -1 -14 4 -14 6 0 9 -3 8 -7 -4 -11 24 -104 39
-133 7 -14 13 -33 13 -42 0 -9 4 -19 9 -23 6 -3 22 -31 37 -63 16 -31 31 -59
34 -62 3 -3 14 -21 23 -40 10 -19 28 -53 42 -75 13 -22 32 -53 41 -69 9 -16
32 -51 50 -78 19 -26 34 -52 34 -57 0 -5 4 -11 8 -13 4 -1 23 -25 42 -53 19
-27 42 -58 51 -70 10 -11 49 -60 88 -110 112 -141 337 -385 355 -385 3 0 16
-10 29 -22 54 -53 97 -88 107 -88 5 0 10 -3 10 -8 0 -4 16 -16 35 -26 19 -11
35 -23 35 -28 0 -5 5 -6 10 -3 6 3 10 2 10 -3 0 -5 16 -17 35 -28 19 -10 35
-22 35 -26 0 -5 7 -8 15 -8 9 0 25 -9 37 -20 12 -10 25 -17 30 -14 4 3 8 0 8
-6 0 -6 4 -9 9 -5 5 3 13 0 16 -5 6 -9 43 -29 65 -35 3 0 21 -9 40 -20 19 -10
40 -20 45 -21 6 -1 30 -11 55 -22 50 -22 81 -34 93 -37 4 -2 9 -4 12 -5 3 -1
8 -3 13 -4 4 -1 30 -10 58 -19 67 -23 68 -23 228 -56 167 -35 231 -43 356 -42
88 0 185 6 185 10 0 1 19 4 42 6 23 2 52 9 63 15 11 6 20 8 20 4 0 -3 6 -2 13
3 13 11 67 27 80 25 4 -1 7 2 7 8 0 5 6 10 13 10 7 0 29 17 49 38 39 40 44 73
19 137 -7 17 -13 32 -13 35 -4 23 -11 40 -17 40 -4 0 -13 16 -20 35 -7 19 -17
35 -22 35 -5 0 -9 5 -9 11 0 12 -60 103 -72 107 -4 2 -8 10 -8 17 0 7 -3 15
-7 17 -5 2 -29 29 -56 60 -82 97 -208 219 -299 287 -27 19 -48 39 -48 43 0 4
-7 8 -15 8 -8 0 -15 5 -15 10 0 6 -5 10 -11 10 -7 0 -19 8 -28 18 -9 9 -24 22
-33 27 -45 27 -164 110 -170 119 -4 6 -8 7 -8 2 0 -5 -9 1 -20 14 -11 13 -20
20 -20 17 0 -4 -37 17 -82 46 -46 29 -96 59 -113 67 -16 8 -32 18 -35 21 -3 3
-47 25 -97 49 -51 24 -93 48 -93 53 0 4 -4 6 -8 3 -5 -3 -21 2 -36 10 -16 7
-35 14 -42 14 -8 0 -14 5 -14 10 0 6 -7 10 -15 10 -9 0 -35 9 -57 20 -23 11
-46 20 -51 20 -5 0 -31 11 -58 25 -27 13 -49 22 -49 19 0 -2 -11 3 -25 12 -14
9 -25 13 -25 10 0 -4 -11 1 -25 10 -14 9 -25 13 -25 8 0 -4 -5 -3 -12 4 -7 7
-17 12 -24 12 -6 0 -29 8 -50 17 -22 9 -42 18 -46 19 -5 1 -11 3 -15 4 -5 1
-11 2 -15 1 -5 0 -8 4 -8 9 0 5 -3 9 -7 9 -5 -1 -10 0 -13 1 -5 2 -29 7 -52
13 -7 1 -20 7 -28 12 -8 5 -24 11 -34 12 -11 2 -25 8 -31 13 -7 5 -14 7 -17 4
-4 -3 -20 2 -37 11 -17 8 -31 12 -31 8 0 -4 -5 -2 -11 4 -6 6 -17 9 -24 7 -7
-3 -16 -1 -20 5 -3 6 -19 11 -36 11 -16 0 -29 4 -29 8 0 5 -6 9 -12 10 -13 0
-34 5 -93 19 -16 4 -33 7 -37 7 -3 1 -10 4 -14 9 -4 4 -20 7 -36 7 -15 0 -28
4 -28 8 0 5 -12 9 -27 9 -16 1 -48 7 -72 13 -70 17 -149 19 -155 4z"/>
<path d="M17777 8214 c-1 -1 -20 -4 -42 -7 -22 -3 -47 -8 -55 -11 -8 -3 -26
-8 -40 -10 -48 -9 -73 -16 -104 -26 -17 -5 -43 -11 -58 -12 -16 -1 -28 -5 -28
-8 0 -3 -8 -6 -17 -7 -10 -1 -47 -11 -83 -23 -36 -12 -76 -24 -90 -26 -14 -3
-32 -7 -40 -11 -8 -3 -18 -7 -22 -7 -3 -1 -10 -4 -14 -8 -4 -5 -17 -8 -29 -8
-11 0 -26 -5 -33 -12 -7 -7 -12 -8 -12 -4 0 5 -7 3 -15 -4 -8 -7 -15 -10 -15
-7 0 3 -12 0 -27 -8 -15 -8 -30 -12 -35 -9 -4 3 -8 0 -8 -7 0 -7 -3 -9 -7 -6
-3 4 -16 1 -27 -7 -12 -7 -37 -17 -56 -21 -19 -4 -41 -11 -50 -16 -35 -19
-195 -82 -207 -82 -7 0 -13 -3 -13 -7 0 -3 -25 -14 -55 -25 -30 -10 -55 -22
-55 -27 0 -5 -4 -7 -9 -3 -5 3 -26 -4 -45 -16 -20 -11 -36 -18 -36 -13 0 4 -8
0 -17 -9 -10 -8 -22 -17 -28 -18 -20 -4 -80 -34 -87 -44 -4 -5 -8 -6 -8 -2 0
9 -101 -42 -111 -56 -3 -5 -13 -9 -21 -11 -9 -1 -23 -8 -32 -15 -25 -21 -127
-81 -138 -81 -5 0 -7 -4 -4 -8 2 -4 -10 -14 -27 -22 -18 -7 -34 -16 -37 -19
-3 -3 -34 -26 -70 -51 -36 -24 -66 -48 -68 -52 -2 -4 -8 -8 -14 -8 -12 0 -56
-32 -183 -135 -38 -31 -74 -63 -78 -71 -4 -8 -15 -14 -23 -14 -8 0 -12 -4 -9
-10 3 -5 1 -10 -5 -10 -5 0 -23 -12 -39 -27 -54 -53 -211 -237 -211 -249 0 -7
-7 -15 -16 -18 -9 -4 -14 -9 -11 -12 3 -3 -3 -14 -14 -25 -10 -10 -19 -26 -19
-34 0 -8 -4 -15 -8 -15 -7 0 -30 -38 -37 -60 -1 -3 -12 -27 -24 -55 -28 -63
-33 -113 -14 -146 18 -30 85 -74 128 -85 17 -4 36 -11 43 -17 6 -5 12 -6 12
-3 0 4 9 2 21 -4 18 -10 39 -14 134 -24 11 -1 25 -5 30 -8 6 -4 17 -3 25 2 7
4 23 5 34 1 31 -11 222 -1 300 15 12 2 37 7 56 10 30 5 64 12 187 39 12 3 34
10 48 15 14 5 25 7 25 4 0 -4 6 -2 13 4 6 6 17 11 22 11 17 2 109 33 130 44
11 6 26 12 33 13 8 1 21 6 30 10 9 4 21 8 25 8 4 1 11 7 16 14 5 8 10 13 12
12 10 -4 59 13 59 21 0 5 3 8 8 7 10 -3 136 63 140 73 2 5 9 9 17 9 7 0 18 7
25 15 7 8 15 13 19 10 4 -2 19 7 33 20 14 13 29 21 32 18 3 -4 6 -1 6 5 0 7 7
12 15 12 8 0 15 5 15 10 0 6 5 10 10 10 6 0 18 8 28 18 11 9 32 26 47 37 16
11 39 31 52 45 13 14 23 22 23 18 0 -11 188 178 255 257 33 39 62 72 65 75 3
3 23 28 44 55 22 28 46 57 54 65 7 8 49 65 92 125 44 61 83 115 87 120 45 56
251 430 256 463 2 11 8 26 15 34 9 11 9 18 -1 28 -6 7 -7 10 -1 7 7 -4 16 9
23 32 18 61 15 67 -25 67 -19 -1 -36 -1 -37 -2z"/>
<path d="M7199 7304 c-17 -46 -23 -143 -24 -374 0 -208 8 -413 19 -468 3 -13
8 -50 11 -83 4 -33 8 -70 11 -82 2 -12 6 -39 9 -62 4 -22 13 -69 21 -105 9
-36 17 -72 19 -80 4 -22 52 -198 66 -245 12 -43 52 -151 74 -200 51 -112 67
-154 64 -157 -2 -2 6 -14 19 -28 12 -13 22 -32 22 -42 0 -10 5 -18 10 -18 6 0
10 -5 10 -11 0 -6 14 -30 30 -54 17 -24 30 -48 30 -54 0 -6 4 -11 8 -11 5 0
15 -12 23 -27 8 -16 16 -30 19 -33 3 -3 18 -23 34 -45 16 -22 37 -47 45 -56 9
-9 27 -31 41 -49 48 -61 208 -218 296 -290 93 -76 245 -180 262 -180 6 0 12
-4 14 -8 4 -11 140 -75 236 -112 221 -86 378 -94 511 -27 98 49 132 111 137
248 6 175 -91 432 -269 713 -6 11 -20 29 -29 40 -10 11 -18 23 -18 27 0 3 -14
24 -30 45 -17 22 -40 52 -53 69 -26 35 -179 213 -232 270 -56 60 -274 291
-325 345 -25 26 -76 80 -113 121 -38 41 -94 101 -125 134 -32 33 -102 110
-157 170 -55 61 -116 126 -135 146 -19 20 -55 60 -80 90 -25 29 -53 61 -62 71
-10 10 -18 23 -18 28 0 6 -4 10 -9 10 -4 0 -25 23 -45 52 -20 29 -36 48 -36
43 0 -6 -9 5 -20 23 -12 19 -31 44 -43 57 -12 13 -26 30 -32 37 -75 97 -156
188 -168 188 -4 0 -12 -12 -18 -26z"/>
<path d="M13179 7278 c-24 -28 -57 -67 -74 -87 -16 -20 -33 -37 -37 -39 -5 -2
-8 -10 -8 -18 0 -8 -4 -14 -8 -14 -4 0 -24 -21 -44 -48 -20 -26 -46 -58 -57
-72 -12 -14 -36 -42 -54 -64 -17 -21 -42 -50 -54 -65 -38 -44 -106 -122 -141
-160 -19 -20 -68 -74 -110 -119 -43 -46 -95 -103 -117 -126 -22 -24 -87 -94
-145 -156 -58 -63 -127 -137 -155 -166 -27 -29 -99 -105 -160 -169 -60 -65
-121 -130 -135 -144 -14 -14 -57 -62 -95 -106 -39 -44 -74 -85 -80 -91 -5 -6
-23 -28 -40 -49 -16 -21 -39 -50 -51 -64 -61 -77 -244 -365 -244 -386 0 -2
-12 -30 -26 -62 -48 -105 -53 -118 -79 -208 -49 -164 -44 -296 14 -387 45 -70
172 -122 296 -121 90 0 300 60 412 116 28 14 53 23 57 20 3 -4 6 -2 6 4 0 6
15 17 33 24 56 23 195 116 311 209 10 8 26 23 34 32 9 9 19 15 24 12 4 -3 8 2
8 10 0 9 4 16 9 16 13 0 251 240 251 254 0 4 31 43 62 76 9 10 14 21 10 24 -3
3 -1 6 4 6 5 0 18 16 28 35 11 19 23 35 28 35 4 0 8 4 8 10 0 5 15 33 34 62
36 58 102 178 104 191 1 4 8 22 16 40 7 17 22 53 32 79 11 27 23 48 27 48 5 0
6 4 3 8 -3 5 1 20 9 35 8 15 12 27 10 27 -2 0 3 17 11 37 9 20 18 44 20 52 2
9 17 68 34 131 36 137 65 273 75 355 3 17 7 53 11 80 4 28 8 66 9 85 2 19 6
60 9 90 8 70 21 401 16 420 0 3 -3 55 -5 115 -5 148 -21 235 -43 235 -5 0 -28
-23 -53 -52z"/>
<path d="M4157 6234 c-1 -1 -51 -4 -112 -8 -60 -3 -121 -8 -135 -10 -14 -3
-45 -7 -70 -10 -49 -7 -68 -10 -183 -31 -43 -8 -81 -14 -85 -13 -4 1 -20 -1
-37 -5 -16 -4 -48 -9 -70 -12 -22 -2 -55 -9 -73 -14 -18 -5 -35 -10 -37 -10
-3 -1 -6 -1 -7 -2 -2 0 -12 -2 -23 -4 -48 -9 -185 -58 -195 -71 -17 -19 -4
-48 43 -101 58 -64 90 -94 136 -125 14 -10 22 -18 17 -18 -5 0 11 -14 35 -32
24 -17 55 -42 69 -55 14 -13 30 -23 37 -23 6 0 13 -4 15 -8 6 -16 194 -137
231 -149 9 -3 17 -9 17 -14 0 -5 6 -9 13 -9 16 0 100 -42 109 -55 4 -5 8 -6 8
-2 0 5 12 1 28 -7 28 -15 64 -28 71 -26 2 1 7 -3 10 -8 6 -9 76 -39 108 -46 7
-1 16 -5 19 -9 4 -4 18 -7 31 -7 12 0 23 -4 23 -10 0 -5 13 -10 28 -10 16 0
32 -3 36 -7 3 -4 12 -8 19 -9 7 -1 39 -10 72 -19 72 -19 78 -21 178 -40 44 -8
83 -12 88 -9 5 3 9 1 9 -3 0 -5 19 -10 42 -12 23 -1 45 -4 48 -6 10 -6 144
-18 207 -19 29 -1 53 -3 53 -6 0 -7 269 -5 276 3 3 3 17 2 30 -3 14 -6 26 -6
29 0 3 5 13 9 23 8 43 0 231 30 347 56 135 30 183 43 255 69 47 17 104 43 127
59 23 15 47 28 54 28 7 0 10 2 7 5 -3 3 12 22 33 43 49 50 58 94 30 155 -30
65 -128 161 -251 246 -51 35 -301 161 -320 161 -9 0 -20 3 -23 7 -8 7 -132 52
-162 58 -59 11 -80 17 -97 26 -10 5 -18 8 -18 5 0 -3 -21 1 -47 9 -27 7 -64
16 -83 19 -19 3 -46 8 -60 12 -14 3 -41 8 -60 10 -19 3 -61 9 -93 15 -31 5
-62 7 -67 4 -6 -3 -10 -2 -10 4 0 5 -20 9 -45 8 -25 -1 -45 0 -45 3 0 3 -12 6
-27 6 -16 1 -75 5 -133 9 -87 6 -438 13 -443 9z"/>
<path d="M15977 6233 c-2 -1 -47 -4 -102 -7 -55 -2 -100 -5 -100 -6 0 -1 -20
-3 -45 -5 -25 -1 -70 -6 -100 -10 -30 -3 -68 -8 -85 -10 -16 -2 -43 -6 -60 -9
-16 -3 -43 -8 -60 -11 -33 -6 -126 -23 -165 -31 -14 -3 -43 -10 -65 -16 -22
-5 -47 -12 -55 -13 -8 -2 -44 -13 -79 -24 -36 -11 -68 -18 -73 -15 -4 3 -8 0
-8 -5 0 -6 -9 -11 -20 -11 -11 0 -20 -5 -20 -11 0 -5 -4 -7 -10 -4 -5 3 -16 3
-22 -2 -7 -4 -15 -8 -18 -9 -42 -13 -74 -27 -179 -81 -284 -144 -463 -336
-409 -436 18 -33 75 -97 87 -97 5 0 16 -6 23 -13 35 -33 201 -101 301 -121 12
-3 33 -7 47 -10 162 -35 329 -64 421 -72 87 -7 342 -11 354 -5 6 3 37 6 70 7
33 2 60 3 60 4 0 1 14 4 30 5 103 10 180 21 180 25 0 1 16 3 35 5 19 3 46 7
60 10 14 3 36 7 50 10 47 9 105 23 105 25 0 2 36 10 58 12 9 1 17 5 17 8 0 4
6 7 13 7 16 0 159 44 172 54 6 3 25 10 43 14 17 3 32 11 32 17 0 6 3 8 6 5 4
-3 16 -1 28 5 11 7 23 13 26 13 3 0 15 6 28 13 12 7 26 10 31 8 5 -3 12 1 15
10 3 8 10 12 16 9 5 -3 10 -1 10 4 0 6 9 11 20 11 11 0 20 5 20 11 0 5 5 7 10
4 6 -3 13 0 16 8 2 7 10 14 17 14 25 0 323 190 347 222 3 3 25 22 50 41 44 34
113 94 154 136 62 63 85 106 67 128 -10 12 -80 41 -121 51 -3 1 -17 5 -31 9
-14 4 -34 9 -45 11 -10 2 -19 4 -19 5 0 2 -19 6 -60 13 -16 3 -41 8 -55 11
-35 8 -87 16 -140 22 -25 2 -65 9 -90 14 -25 5 -63 12 -85 15 -22 4 -49 9 -60
10 -34 6 -117 15 -195 21 -73 6 -439 12 -443 7z"/>
<path d="M6187 5134 c-1 -1 -44 -4 -94 -6 -51 -3 -95 -7 -99 -10 -3 -4 -18 -3
-34 2 -15 4 -32 4 -36 0 -5 -5 -34 -11 -64 -14 -30 -3 -77 -9 -105 -13 -27 -4
-60 -7 -72 -7 -13 -1 -23 -4 -23 -7 0 -3 -6 -6 -12 -7 -19 -2 -79 -11 -118
-17 -19 -3 -43 -7 -52 -8 -10 -1 -18 -4 -18 -7 0 -4 -6 -7 -12 -7 -16 -1 -77
-12 -98 -18 -8 -2 -26 -6 -40 -9 -35 -7 -70 -14 -105 -23 -16 -4 -32 -7 -35
-8 -3 0 -28 -7 -56 -14 -29 -7 -59 -13 -68 -15 -8 -1 -19 -5 -22 -9 -4 -4 -15
-7 -25 -7 -9 0 -50 -12 -91 -26 -40 -14 -80 -26 -88 -27 -17 -3 -115 -34 -145
-47 -11 -5 -58 -22 -105 -38 -91 -32 -330 -149 -330 -162 0 -4 11 -15 25 -24
45 -29 115 -67 115 -61 0 3 18 -4 40 -15 21 -11 44 -20 49 -20 5 0 22 -5 38
-12 15 -6 31 -11 36 -10 4 1 7 -2 7 -8 0 -6 3 -9 8 -8 7 3 48 -12 107 -37 17
-8 61 -25 99 -39 38 -15 76 -31 83 -38 7 -6 16 -8 20 -5 3 4 15 1 27 -5 11 -7
23 -13 26 -14 3 0 12 -4 20 -7 55 -23 336 -115 367 -120 10 -1 24 -6 31 -10 7
-5 26 -9 42 -9 17 -1 30 -4 30 -8 0 -4 19 -11 43 -15 23 -4 49 -10 57 -12 8
-2 24 -5 35 -6 11 -1 22 -5 25 -9 3 -4 22 -8 43 -10 20 -1 37 -5 37 -9 0 -3 8
-6 18 -6 9 1 46 -4 82 -11 36 -6 79 -14 95 -16 17 -3 41 -7 55 -10 32 -6 136
-19 175 -22 17 -1 30 -3 30 -3 0 -6 193 -14 330 -14 143 0 239 6 300 19 11 2
31 6 45 8 85 13 344 96 455 145 23 11 58 24 65 25 3 1 11 5 18 9 6 5 12 5 12
0 0 -4 4 -2 9 5 4 7 14 14 22 16 8 1 42 17 76 34 35 18 65 32 68 32 3 0 14 8
24 18 47 41 84 67 94 64 7 -2 9 -1 6 3 -4 3 20 33 52 66 33 34 57 64 54 69 -3
4 2 13 10 20 8 7 13 16 10 20 -3 5 -1 12 5 15 6 4 9 23 8 42 -3 43 -69 115
-145 159 -26 16 -49 32 -51 36 -2 4 -9 8 -15 8 -6 0 -29 9 -51 19 -63 29 -207
82 -228 84 -10 1 -18 6 -18 11 0 5 -3 7 -6 4 -3 -3 -39 4 -79 17 -41 12 -77
20 -80 17 -3 -3 -5 -1 -5 4 0 5 -10 10 -22 10 -13 1 -41 7 -63 13 -22 6 -49
14 -60 16 -11 3 -42 10 -70 17 -27 7 -54 11 -59 10 -5 -2 -16 0 -25 4 -9 4
-32 8 -51 11 -19 2 -42 6 -50 9 -8 3 -35 8 -60 11 -25 2 -61 6 -80 9 -80 11
-357 24 -363 18z"/>
<path d="M14097 5133 c-1 0 -40 -4 -87 -7 -47 -3 -98 -7 -115 -10 -16 -3 -61
-10 -100 -15 -38 -6 -81 -13 -95 -16 -14 -3 -43 -8 -64 -10 -21 -3 -42 -8 -46
-10 -7 -5 -68 -17 -87 -18 -7 0 -13 -3 -13 -7 0 -3 -10 -6 -22 -7 -13 -1 -50
-9 -83 -18 -33 -9 -67 -19 -75 -20 -30 -7 -165 -47 -185 -55 -32 -14 -69 -24
-77 -22 -5 1 -8 -3 -8 -8 0 -6 -6 -10 -14 -10 -22 0 -140 -55 -198 -93 -66
-43 -128 -99 -128 -115 0 -6 -5 -12 -11 -12 -14 0 -4 -91 12 -100 6 -4 10 -10
10 -14 -1 -3 -1 -10 -1 -16 0 -17 190 -200 190 -182 0 4 4 2 8 -3 10 -15 92
-67 109 -69 7 -1 19 -8 25 -14 7 -7 19 -12 28 -12 9 0 20 -4 26 -9 5 -4 52
-25 104 -45 52 -21 106 -42 118 -47 87 -35 297 -97 353 -104 16 -2 32 -6 36
-8 27 -16 510 -32 538 -18 6 3 28 7 50 8 50 4 120 11 120 13 0 1 20 3 45 6 25
2 60 6 78 9 17 3 49 7 70 10 20 3 48 8 62 11 14 3 40 8 57 10 18 2 61 11 95
20 35 8 72 17 83 19 11 2 35 8 53 13 17 6 32 8 32 5 0 -3 6 0 13 6 8 6 16 8
19 6 3 -3 18 -1 34 6 16 6 36 12 44 14 8 2 35 9 60 16 25 7 48 13 53 15 4 1 8
2 10 4 1 1 9 3 17 5 35 7 236 78 248 87 6 6 12 8 12 5 0 -5 92 29 158 59 18 9
42 16 52 17 11 1 20 4 20 8 0 4 24 15 53 25 28 9 68 24 87 32 19 9 38 17 43
18 4 1 9 3 12 4 3 1 8 3 13 5 4 1 21 7 37 14 17 7 35 14 40 15 58 15 195 90
195 107 0 4 -35 24 -77 45 -43 20 -79 41 -81 45 -2 5 -8 9 -13 9 -5 0 -28 9
-52 20 -42 19 -174 70 -192 74 -13 3 -85 26 -105 33 -8 3 -19 7 -25 8 -5 2
-39 12 -74 24 -35 11 -70 21 -78 21 -7 0 -13 5 -13 12 0 6 -2 9 -6 6 -4 -5
-30 0 -99 18 -11 3 -24 6 -30 7 -5 2 -16 6 -22 10 -7 5 -13 6 -13 3 0 -2 -15
0 -32 5 -18 5 -46 12 -63 15 -16 3 -50 10 -75 16 -25 6 -54 12 -65 14 -11 2
-37 7 -57 13 -21 5 -38 7 -38 4 0 -3 -7 0 -15 7 -8 7 -15 10 -15 7 0 -3 -17
-1 -37 4 -21 6 -51 12 -68 14 -74 11 -90 14 -90 15 0 4 -134 22 -177 24 -16 0
-28 3 -28 6 0 3 -25 5 -55 5 -30 0 -55 2 -55 5 0 6 -357 19 -363 13z"/>
<path d="M8427 4213 c-1 -1 -48 -3 -105 -5 -56 -2 -102 -6 -102 -9 0 -3 -14
-5 -31 -4 -17 1 -56 -2 -87 -6 -85 -12 -153 -21 -187 -24 -16 -2 -43 -5 -60
-8 -16 -3 -50 -9 -75 -12 -25 -4 -54 -9 -65 -11 -11 -3 -37 -7 -59 -9 -21 -2
-46 -7 -55 -9 -9 -3 -32 -8 -51 -11 -64 -11 -265 -56 -290 -65 -14 -5 -36 -11
-50 -12 -14 -2 -29 -6 -35 -10 -9 -5 -89 -22 -110 -23 -5 0 -12 -3 -15 -7 -3
-4 -17 -9 -30 -12 -14 -3 -36 -8 -50 -11 -14 -4 -31 -7 -37 -7 -7 -1 -13 -5
-13 -10 0 -4 -3 -7 -7 -6 -16 3 -73 -17 -238 -82 -250 -99 -445 -203 -445
-235 0 -8 6 -15 13 -15 7 0 33 -10 58 -22 24 -11 54 -22 66 -22 12 -1 25 -5
29 -9 4 -4 18 -7 31 -7 13 0 23 -4 23 -9 0 -5 8 -8 18 -6 9 1 23 -2 30 -8 6
-5 12 -6 12 -2 0 4 7 2 15 -5 8 -7 21 -10 28 -7 7 3 24 -1 38 -9 13 -7 32 -13
41 -14 9 0 29 -5 45 -12 15 -6 30 -12 33 -13 3 0 32 -9 65 -20 33 -10 65 -18
72 -16 6 1 14 -3 18 -9 3 -5 19 -10 34 -10 15 0 31 -3 35 -7 3 -4 12 -8 19 -9
7 -1 35 -8 62 -17 28 -8 52 -15 55 -15 3 0 12 -3 20 -5 25 -8 102 -29 119 -32
9 -2 31 -8 49 -14 18 -5 35 -10 37 -10 3 -1 6 -1 8 -2 1 0 9 -2 17 -4 52 -11
71 -16 125 -30 57 -15 76 -19 128 -30 12 -2 48 -11 80 -18 31 -8 57 -12 57 -9
0 2 7 -1 15 -8 8 -7 15 -10 15 -8 0 3 19 1 43 -3 58 -12 137 -23 170 -23 15
-1 27 -4 27 -7 0 -3 12 -6 28 -7 25 -1 79 -6 197 -17 65 -6 404 -7 432 -1 12
3 48 7 80 11 61 6 101 12 143 20 14 3 36 7 50 10 14 3 36 7 50 10 14 2 41 7
60 10 50 8 136 33 200 57 142 54 431 189 467 220 7 6 13 8 13 4 0 -3 19 6 43
21 108 70 205 162 239 227 21 41 19 104 -4 135 -36 48 -80 86 -134 117 -57 32
-192 92 -224 99 -8 2 -35 11 -60 20 -25 9 -54 18 -65 20 -11 2 -45 10 -75 18
-30 8 -71 18 -90 21 -19 3 -57 10 -85 15 -27 5 -77 13 -110 16 -33 4 -67 9
-76 10 -68 13 -622 29 -632 18z"/>
<path d="M11657 4214 c-1 -1 -54 -4 -117 -8 -63 -3 -131 -8 -150 -10 -19 -3
-55 -7 -80 -10 -25 -3 -61 -8 -80 -12 -19 -3 -42 -7 -50 -9 -8 -1 -42 -8 -75
-15 -33 -7 -67 -14 -75 -15 -8 -2 -15 -4 -15 -5 0 -1 -11 -4 -25 -7 -30 -6
-40 -8 -60 -15 -8 -3 -51 -18 -95 -33 -225 -78 -365 -174 -380 -263 -25 -150
236 -343 737 -546 124 -50 344 -99 543 -121 33 -4 74 -9 90 -11 73 -10 426 -3
535 11 30 4 71 8 90 10 19 2 51 6 70 10 19 4 42 7 50 7 8 0 22 2 30 5 8 3 26
7 40 9 70 10 85 12 85 14 0 2 9 4 20 6 11 1 31 5 44 8 111 25 174 40 221 53
60 17 57 16 115 28 55 12 55 12 58 15 1 1 9 3 17 5 48 10 146 38 155 44 6 4
20 6 33 5 12 0 22 3 22 8 0 6 7 8 15 4 8 -3 15 -1 15 4 0 5 9 7 20 5 11 -2 20
1 20 7 0 6 3 9 6 6 3 -4 20 -2 37 4 18 5 39 11 47 12 8 1 33 9 55 16 22 8 42
15 45 15 37 9 98 27 110 34 18 10 82 26 93 23 4 -1 7 2 7 6 0 4 8 8 18 9 38 3
87 15 92 24 3 5 16 7 28 4 12 -2 22 0 22 6 0 5 9 9 20 9 12 0 34 7 50 15 17 9
30 13 30 10 0 -3 10 0 23 7 12 7 24 13 27 14 3 0 13 4 22 8 16 7 16 9 0 25
-40 41 -233 141 -392 204 -36 14 -78 31 -95 38 -16 7 -32 13 -35 14 -3 1 -14
5 -25 9 -61 23 -53 21 -90 31 -16 4 -34 10 -40 14 -5 3 -19 7 -30 8 -11 2 -27
6 -35 10 -20 8 -30 11 -65 18 -16 3 -37 8 -45 12 -8 3 -23 8 -34 10 -10 2 -64
15 -119 29 -55 14 -120 30 -144 35 -24 5 -64 14 -90 20 -82 18 -190 37 -243
44 -19 2 -35 5 -35 5 0 1 -11 3 -25 5 -14 1 -43 5 -65 9 -22 4 -56 9 -75 11
-47 5 -115 14 -153 20 -16 3 -64 8 -106 11 -42 2 -94 7 -116 10 -38 5 -493 13
-498 8z"/>
</g>
</svg>
