<svg width="48" height="48" viewBox="0 0 48 48" fill="none" xmlns="http://www.w3.org/2000/svg">
<path fill-rule="evenodd" clip-rule="evenodd" d="M24 45C35.598 45 45 35.598 45 24C45 12.402 35.598 3 24 3C12.402 3 3 12.402 3 24C3 35.598 12.402 45 24 45ZM24 48C37.2548 48 48 37.2548 48 24C48 10.7452 37.2548 0 24 0C10.7452 0 0 10.7452 0 24C0 37.2548 10.7452 48 24 48Z" fill="#CC2222"/>
<path d="M26.6804 10.8182L26.1818 29.1506H21.5028L20.9915 10.8182H26.6804ZM23.8423 37.3324C22.9986 37.3324 22.2741 37.0341 21.669 36.4375C21.0639 35.8324 20.7656 35.108 20.7741 34.2642C20.7656 33.429 21.0639 32.7131 21.669 32.1165C22.2741 31.5199 22.9986 31.2216 23.8423 31.2216C24.652 31.2216 25.3636 31.5199 25.9773 32.1165C26.5909 32.7131 26.902 33.429 26.9105 34.2642C26.902 34.8267 26.7528 35.3423 26.4631 35.8111C26.1818 36.2713 25.8111 36.642 25.3509 36.9233C24.8906 37.196 24.3878 37.3324 23.8423 37.3324Z" fill="#CC2222"/>
</svg>
